<?xml version="1.0" standalone="no"?>
<!DOCTYPE svg PUBLIC "-//W3C//DTD SVG 20010904//EN"
 "http://www.w3.org/TR/2001/REC-SVG-20010904/DTD/svg10.dtd">
<svg version="1.0" xmlns="http://www.w3.org/2000/svg"
 width="1280.000000pt" height="740.000000pt" viewBox="0 0 1280.000000 740.000000"
 preserveAspectRatio="xMidYMid meet">
<metadata>
Created by potrace 1.15, written by Peter Selinger 2001-2017
</metadata>
<g transform="translate(0.000000,740.000000) scale(0.100000,-0.100000)"
fill="#000000" stroke="none">
<path d="M11063 7388 c-31 -15 -29 -26 5 -30 19 -2 28 -9 30 -25 5 -31 -9 -29
-43 7 -16 17 -32 30 -36 30 -11 0 30 -82 54 -108 18 -19 19 -22 4 -16 -10 3
-31 26 -48 50 -32 47 -49 54 -69 29 -13 -16 -4 -29 43 -56 17 -10 24 -59 8
-59 -4 0 -20 18 -35 40 -14 22 -28 40 -30 40 -2 0 -15 -11 -29 -24 -27 -25
-26 -36 4 -36 24 0 35 -20 18 -31 -8 -5 -23 -2 -36 7 -27 17 -30 8 -5 -19 16
-19 16 -20 -4 -9 -20 10 -19 9 4 -38 31 -64 24 -84 -11 -31 -15 22 -31 41 -35
41 -5 0 -19 -11 -32 -25 -20 -21 -21 -25 -7 -25 10 0 23 -11 29 -25 6 -14 17
-24 24 -21 19 7 24 -17 8 -39 -8 -10 -15 -17 -17 -14 -2 2 -14 21 -26 42 -12
20 -26 37 -30 37 -9 0 -61 -53 -61 -62 0 -4 12 -8 26 -10 34 -4 54 -32 36 -50
-9 -9 -18 -8 -39 8 -51 37 -56 37 -32 3 13 -19 32 -44 43 -56 11 -13 16 -29
12 -39 -6 -15 -8 -16 -24 0 -25 22 -34 20 -62 -9 -16 -17 -19 -25 -9 -25 27
-1 68 -46 62 -70 -5 -20 -7 -19 -35 14 -36 43 -46 44 -81 8 -30 -32 -27 -42
14 -42 29 0 47 -26 29 -44 -8 -8 -22 -4 -51 12 -23 13 -42 22 -44 20 -3 -2 14
-23 35 -47 36 -39 44 -43 72 -37 l33 6 -24 -21 c-13 -11 -30 -18 -38 -15 -7 3
-13 1 -13 -3 0 -13 25 -20 47 -15 17 5 20 -1 22 -43 5 -89 6 -98 19 -111 19
-21 14 -34 -8 -20 -17 11 -23 8 -49 -16 -33 -32 -32 -46 3 -46 27 0 51 -24 41
-40 -10 -16 -33 -12 -65 12 -43 31 -44 19 -4 -30 41 -49 59 -51 118 -17 l43
25 28 -35 c20 -28 25 -42 20 -63 l-7 -27 -16 22 c-10 12 -24 33 -33 45 l-17
23 -41 -23 c-22 -13 -46 -20 -52 -16 -7 4 -10 1 -7 -7 4 -10 19 -13 52 -11 56
4 76 -9 76 -50 0 -33 -16 -29 -30 8 -5 13 -17 24 -25 24 -15 0 -15 -1 -1 -16
9 -8 16 -25 16 -38 0 -33 19 -46 65 -46 42 0 65 -13 65 -37 0 -20 -34 -16 -77
9 l-38 22 36 -44 c43 -53 61 -59 107 -34 42 22 57 14 82 -46 21 -47 21 -48
-31 22 l-16 21 -51 -25 c-28 -14 -48 -28 -45 -32 4 -3 28 -3 54 0 41 5 49 4
58 -14 13 -25 14 -62 2 -62 -5 0 -14 14 -20 30 -6 18 -17 30 -27 30 -16 0 -16
-1 -1 -18 10 -10 17 -28 17 -39 0 -31 27 -47 72 -44 41 2 68 -11 68 -34 0 -24
-27 -24 -76 0 -68 34 -70 31 -15 -20 52 -49 81 -56 131 -30 16 8 31 11 34 7 7
-11 -78 -52 -107 -52 -18 0 -19 -2 -7 -10 8 -6 40 -7 70 -4 45 5 59 3 69 -10
11 -13 12 -19 2 -29 -10 -9 -14 -8 -22 6 -6 9 -20 17 -31 17 l-22 0 22 -21
c24 -22 21 -39 -6 -39 -9 0 5 -12 31 -25 27 -14 53 -23 58 -19 5 3 9 -2 9 -10
0 -27 -20 -28 -75 -2 -29 14 -57 26 -60 26 -3 0 15 -20 42 -45 54 -51 82 -56
143 -25 58 30 96 27 115 -10 17 -34 19 -49 5 -70 -9 -12 -17 -7 -49 30 l-39
45 -46 -23 c-26 -12 -56 -22 -67 -22 -11 0 -17 -5 -14 -10 4 -6 35 -9 73 -8
62 3 67 2 81 -24 12 -21 13 -30 4 -39 -9 -9 -16 -5 -30 19 -10 18 -26 32 -36
32 -17 0 -17 -2 2 -26 12 -15 21 -33 21 -40 0 -18 44 -46 62 -39 8 3 31 26 52
50 20 25 41 45 46 45 12 0 61 -72 55 -79 -3 -2 -11 1 -17 7 -13 13 -60 16 -71
5 -4 -4 14 -19 39 -34 45 -26 46 -27 25 -38 -12 -7 -27 -9 -34 -6 -6 4 -3 0 7
-9 10 -8 34 -15 53 -14 39 1 67 -20 57 -45 -9 -25 -36 -21 -81 12 -22 16 -55
37 -74 46 l-34 18 21 -24 c12 -13 36 -48 54 -77 38 -63 59 -76 122 -73 42 1
50 -2 59 -23 14 -29 6 -54 -18 -63 -12 -5 -27 5 -52 34 -20 23 -46 44 -58 48
-13 3 -46 31 -75 61 -64 68 -87 75 -129 40 -25 -21 -27 -26 -12 -26 11 0 30
-11 42 -24 13 -14 35 -26 50 -28 21 -2 27 -9 29 -34 5 -50 -20 -48 -74 7 -55
56 -79 61 -122 24 -17 -14 -36 -25 -43 -25 -11 0 -11 -3 1 -10 8 -5 31 -10 51
-10 39 0 65 -21 55 -45 -7 -19 -33 -19 -71 1 -74 39 -81 35 -28 -16 60 -58 83
-62 158 -25 28 13 60 25 72 25 31 0 65 -47 61 -84 -4 -44 -31 -45 -57 -2 -29
46 -51 52 -100 26 -22 -11 -52 -20 -66 -20 -17 0 -24 -4 -19 -11 4 -8 29 -9
74 -5 65 7 69 6 89 -20 23 -29 24 -59 3 -59 -7 0 -18 11 -25 25 -7 15 -23 26
-37 28 l-25 3 23 -16 c12 -9 22 -26 22 -39 0 -27 29 -56 56 -56 11 0 46 27 79
60 43 44 67 60 86 60 37 0 41 -20 11 -52 -25 -28 -25 -28 -4 -28 12 0 22 -4
22 -10 0 -5 -6 -10 -14 -10 -8 0 -18 5 -21 10 -9 15 -61 12 -75 -5 -10 -13 -9
-15 11 -15 22 0 20 -4 -21 -40 -25 -21 -52 -39 -60 -40 -13 0 -13 -1 0 -10 8
-5 35 -10 60 -10 58 0 92 -23 88 -58 -4 -40 -37 -39 -121 2 -40 20 -76 36 -81
36 -5 0 23 -31 63 -70 66 -65 74 -70 115 -70 30 0 63 10 102 31 48 25 62 28
82 20 12 -6 34 -11 47 -11 24 0 25 -3 24 -62 0 -35 -3 -57 -6 -50 -2 6 -10 12
-16 12 -7 0 -21 14 -32 30 -30 45 -56 47 -136 10 -50 -23 -77 -30 -97 -25 -25
6 -26 5 -10 -11 18 -18 41 -20 135 -9 57 7 63 6 87 -18 16 -16 26 -37 26 -54
0 -27 -1 -27 -23 12 -22 37 -26 40 -68 40 -24 -1 -52 -4 -63 -8 -17 -7 -17 -9
7 -27 16 -13 28 -35 32 -61 5 -30 13 -43 31 -49 32 -13 39 -33 24 -70 -15 -36
-48 -49 -65 -26 -7 9 -20 52 -29 96 -23 107 -30 112 -127 108 -44 -2 -79 -6
-79 -11 0 -4 22 -23 49 -42 54 -39 72 -78 47 -103 -24 -24 -61 -1 -96 61 -32
58 -81 112 -65 72 4 -11 16 -51 26 -88 27 -107 68 -137 181 -137 73 0 124 -25
134 -65 5 -20 -2 -35 -31 -70 -20 -25 -40 -45 -45 -45 -4 0 -11 27 -15 59 -9
77 -23 89 -115 97 -51 5 -79 13 -92 26 -12 12 -18 14 -18 5 0 -28 33 -57 76
-68 25 -7 59 -23 75 -36 24 -20 29 -33 29 -68 0 -45 -19 -75 -21 -33 l0 23
-12 -25 c-11 -23 -12 -22 -15 25 -3 52 -15 75 -38 75 -11 0 -11 -5 -2 -25 8
-18 8 -35 -2 -69 -6 -24 -9 -54 -5 -65 8 -27 -7 -47 -59 -73 l-40 -20 16 23
c55 86 79 140 76 175 -3 32 -10 41 -54 69 l-52 33 12 -29 c9 -26 7 -36 -15
-77 -22 -40 -24 -51 -15 -75 9 -25 7 -31 -14 -48 -27 -20 -60 -25 -60 -9 0 5
-7 7 -15 4 -28 -11 -16 30 35 116 28 47 50 90 50 95 0 20 -31 55 -75 85 -25
17 -45 39 -46 48 0 12 -3 11 -9 -6 -6 -14 -5 -41 2 -72 9 -37 9 -56 0 -75 -14
-30 -37 -34 -29 -5 6 25 -8 26 -22 3 -5 -10 -12 -15 -16 -12 -14 15 -13 53 3
77 12 19 13 24 3 17 -11 -6 -13 -4 -6 11 4 10 10 42 12 69 l5 50 -32 -60 c-18
-33 -41 -76 -52 -95 -21 -39 -47 -58 -57 -41 -5 7 -19 -5 -36 -31 -23 -33 -30
-58 -35 -111 -3 -37 -9 -68 -15 -68 -5 0 -16 30 -22 67 -11 58 -11 71 2 91 14
20 14 23 0 23 -25 0 -43 -41 -53 -124 -12 -92 -29 -115 -91 -123 -42 -6 -43
-5 -39 23 2 23 9 30 35 35 44 9 63 26 63 58 -1 23 -2 24 -14 9 -18 -24 -55
-36 -93 -31 -22 4 -41 -1 -62 -16 -16 -12 -39 -21 -52 -21 -13 0 -35 -12 -50
-26 -25 -24 -29 -25 -55 -12 -16 7 -35 26 -44 41 -14 26 -14 29 5 43 16 13 38
14 117 9 94 -6 98 -6 121 17 18 18 26 40 31 88 4 36 12 70 18 77 26 31 -48 -4
-77 -37 -28 -31 -60 -41 -90 -30 -54 20 -13 80 69 100 22 6 59 19 81 29 l39
18 -109 -1 c-93 -1 -114 -4 -137 -21 -35 -26 -63 -77 -78 -143 -22 -96 -93
-137 -168 -98 -48 25 -64 49 -52 81 11 29 11 29 127 9 43 -8 66 17 94 106 16
53 29 75 46 83 23 10 31 27 14 27 -31 0 -65 -26 -96 -72 -42 -64 -85 -93 -123
-83 -25 7 -25 8 -7 15 16 7 12 9 -17 9 -39 1 -50 14 -22 25 9 3 38 6 64 6 40
0 51 4 61 21 11 21 10 22 -22 15 -26 -5 -41 -1 -72 20 -32 21 -47 25 -76 19
-20 -3 -69 -6 -109 -5 -72 1 -74 0 -106 -34 l-33 -34 -11 34 -10 34 34 0 c19
0 49 8 67 17 25 13 55 16 140 14 168 -4 197 14 197 115 l0 45 -26 -20 c-19
-15 -41 -21 -78 -21 -40 0 -54 -4 -64 -20 -17 -27 -58 -25 -87 5 -29 28 -31
47 -10 65 12 10 41 11 116 6 95 -6 101 -5 123 17 17 17 25 40 30 87 4 36 12
70 18 77 8 10 6 13 -6 13 -9 0 -36 -18 -61 -41 -38 -35 -49 -40 -82 -37 -30 2
-39 7 -41 25 -4 30 30 58 96 77 31 9 71 23 87 31 28 12 24 13 -68 14 -63 1
-110 -4 -131 -13 -39 -16 -80 -78 -95 -145 -18 -82 -71 -129 -132 -117 -50 9
-61 19 -62 57 -2 31 0 34 23 31 28 -3 17 13 -15 22 -11 3 5 2 35 -1 105 -12
118 -4 151 99 17 55 29 74 53 89 l31 19 -26 0 c-15 0 -38 -9 -53 -21 l-26 -20
0 40 c0 52 14 88 37 94 17 4 17 5 0 6 -32 2 -56 -19 -82 -70 -32 -61 -63 -79
-100 -55 -29 19 -32 47 -7 68 9 8 58 34 107 57 89 42 125 66 125 83 0 5 -11 1
-24 -7 -36 -24 -246 -34 -246 -13 0 10 22 20 73 31 157 35 183 58 165 153
l-12 61 -21 -31 c-14 -21 -33 -33 -65 -41 -33 -8 -48 -18 -58 -38 -10 -22 -20
-27 -48 -27 -34 0 -34 0 -34 45 0 43 1 45 38 54 20 5 55 12 77 16 22 3 50 13
63 21 22 14 23 20 20 109 -3 83 -5 92 -19 84 -9 -5 -29 -29 -43 -54 -26 -44
-55 -61 -92 -53 -31 6 -28 28 5 34 17 4 28 10 26 14 -3 5 -14 6 -25 3 -49 -13
-6 36 70 79 25 14 54 36 65 48 l20 23 -30 -16 -30 -15 0 102 c0 55 4 107 8
114 5 8 3 12 -7 12 -21 0 -42 -35 -56 -98 -14 -62 -42 -83 -85 -64 -47 21 -33
54 50 122 69 57 125 116 125 134 0 4 -13 -4 -30 -17 -27 -23 -94 -48 -170 -63
-55 -11 -33 19 48 66 42 25 83 57 92 72 14 26 13 31 -17 90 -25 50 -32 58 -32
37 -1 -28 -29 -58 -78 -83 -23 -12 -33 -24 -33 -40 0 -13 -6 -29 -14 -35 -11
-10 -17 -3 -30 35 -20 60 -20 61 7 68 12 3 43 19 70 35 42 28 47 34 47 68 0
21 -9 55 -20 76 -11 20 -20 49 -20 63 0 43 -27 11 -46 -53 -24 -83 -72 -102
-142 -57 -32 21 -16 46 60 95 34 21 72 55 86 75 25 37 23 37 -37 -3 -42 -29
-46 -29 -47 2 -1 13 -23 57 -48 97 -27 41 -45 81 -42 91 5 21 -7 22 -25 1 -8
-10 -13 -38 -12 -73 3 -105 -38 -152 -84 -95 -13 16 -23 32 -23 35 0 3 27 43
60 88 55 77 89 146 77 157 -3 3 -8 -4 -12 -16 -9 -27 -202 -153 -222 -146 -11
5 5 24 55 72 76 69 112 119 112 152 0 11 -20 42 -45 69 -40 43 -45 45 -39 21
5 -22 -2 -35 -35 -71 -32 -35 -41 -52 -41 -80 0 -40 -19 -57 -64 -57 -82 0
-75 37 25 135 73 72 80 82 75 109 -4 16 -19 45 -34 63 -15 19 -35 48 -44 65
l-17 31 -11 -27 c-5 -15 -10 -47 -10 -70 0 -69 -53 -119 -88 -84 -19 19 -14
52 19 114 17 33 37 76 44 96 13 34 9 32 -58 -39 -40 -41 -77 -85 -84 -97 -23
-40 -15 -91 27 -171 37 -70 48 -105 35 -105 -4 0 -19 7 -36 16 -23 11 -29 20
-24 35 5 13 -6 47 -30 95 -30 60 -36 83 -32 112 l6 37 -19 -24 c-22 -25 -25
-72 -11 -134 12 -51 4 -79 -18 -67 -13 6 -16 18 -13 39 5 35 -7 40 -26 11 -13
-21 -62 -28 -62 -9 0 5 -4 8 -8 5 -5 -3 -25 0 -45 6 -31 10 -35 14 -26 30 14
27 -3 66 -47 109 l-34 33 0 -33 c0 -25 -9 -42 -33 -65 -18 -17 -36 -39 -40
-48 -5 -14 -18 -18 -59 -18 l-53 1 71 67 c40 37 74 74 77 83 7 22 -25 89 -57
118 -15 14 -26 36 -26 50 -1 25 -1 25 -15 7 -8 -11 -15 -41 -15 -67 0 -81 -38
-132 -80 -109 -26 14 -26 55 1 105 75 141 74 151 -8 69 -39 -38 -75 -79 -82
-91 -21 -41 -13 -98 24 -169 19 -37 34 -69 32 -70 -2 -2 -17 -7 -34 -10 -28
-6 -30 -4 -25 24 2 19 -7 51 -28 96 -23 47 -31 76 -28 101 5 44 -9 45 -27 2
-9 -23 -11 -45 -5 -77 16 -81 12 -127 -12 -154 -25 -26 -84 -41 -108 -26 -12
7 -12 12 4 29 11 12 25 21 32 21 7 0 25 10 40 23 22 19 26 29 20 52 l-7 28
-19 -31 c-14 -23 -29 -33 -57 -38 -21 -3 -47 -12 -59 -19 -18 -12 -26 -11 -52
5 l-31 19 10 -26 c15 -40 -33 -129 -80 -149 -19 -8 -38 -13 -43 -12 -5 2 11
35 36 73 64 99 61 118 -29 185 -30 22 -55 48 -56 58 -1 11 -3 8 -8 -7 -3 -13
-2 -50 3 -82 25 -153 -82 -143 -139 13 -15 40 -20 78 -20 154 l1 101 -17 -37
c-10 -21 -33 -63 -53 -94 -29 -45 -36 -66 -36 -105 0 -60 17 -86 133 -205 48
-50 84 -92 82 -95 -3 -2 -38 11 -80 30 -65 30 -74 37 -75 61 0 16 -17 47 -42
78 -66 80 -79 103 -75 128 6 32 -11 27 -20 -5 -10 -37 -5 -59 22 -113 27 -54
39 -110 27 -128 -7 -10 -14 -10 -35 1 -18 10 -23 17 -16 24 6 6 9 23 7 39 -4
32 -28 46 -28 16 0 -27 -29 -55 -51 -49 -11 3 -16 0 -13 -8 11 -28 -28 -25
-52 4 -14 17 -49 39 -82 51 -31 12 -63 28 -69 37 -25 32 -15 -32 12 -78 40
-70 27 -135 -25 -127 -33 4 -50 41 -50 113 -1 33 -5 78 -9 100 l-8 40 -7 -30
c-4 -16 -16 -65 -28 -107 -14 -51 -18 -89 -14 -113 9 -44 62 -100 129 -135 26
-14 47 -28 47 -31 0 -3 -13 -18 -30 -34 l-30 -29 0 25 c0 34 -14 49 -88 99
-43 28 -67 52 -74 73 -11 30 -12 30 -20 8 -10 -28 10 -78 47 -111 61 -56 83
-150 32 -134 -21 6 -21 6 -5 -13 17 -18 17 -20 -2 -41 -12 -12 -24 -22 -29
-22 -12 0 -6 72 8 101 11 23 11 30 -5 55 l-19 28 -6 -37 c-3 -21 -9 -40 -12
-43 -9 -9 -121 35 -134 53 -25 32 -15 -33 14 -91 24 -49 25 -57 13 -85 -9 -22
-19 -31 -36 -31 -38 0 -54 37 -59 138 -2 50 -8 99 -14 109 -9 15 -10 12 -11
-17 0 -19 -9 -64 -20 -100 -11 -36 -20 -81 -20 -100 0 -62 47 -116 150 -173
l32 -17 -24 -38 c-12 -20 -37 -64 -55 -97 -38 -71 -44 -54 -8 23 42 90 39 96
-85 185 -29 21 -49 45 -57 67 l-11 35 -7 -27 c-9 -36 1 -63 39 -107 53 -60 66
-84 66 -124 0 -29 -7 -46 -29 -68 -33 -33 -71 -39 -71 -11 0 10 11 33 25 52
28 38 31 66 11 93 -14 18 -32 24 -21 6 12 -19 -4 -55 -45 -96 -33 -35 -40 -48
-40 -82 0 -54 23 -76 94 -91 31 -6 56 -15 56 -20 0 -23 -13 -37 -30 -33 -16 4
-17 0 -13 -41 6 -51 2 -55 -26 -27 -10 10 -45 28 -77 40 -31 12 -63 30 -70 39
-25 32 -16 -21 11 -72 35 -66 33 -125 -5 -138 -42 -15 -69 40 -71 147 -1 61
-16 134 -18 89 -1 -12 -12 -61 -26 -109 -21 -71 -24 -93 -15 -124 11 -42 67
-100 125 -129 73 -36 79 -50 64 -134 -15 -84 -40 -118 -89 -118 -17 0 -33 6
-36 14 -3 8 9 47 26 87 41 93 37 108 -55 170 -49 33 -73 57 -81 79 -5 17 -13
27 -17 24 -16 -17 -5 -64 26 -103 86 -114 91 -126 62 -181 -16 -31 -43 -50
-69 -50 -23 0 -19 30 9 72 30 45 31 59 5 89 l-19 24 -1 -36 c0 -27 -8 -43 -35
-69 -65 -63 -65 -138 1 -170 l32 -15 -44 -70 c-65 -105 -59 -178 21 -255 19
-19 35 -38 35 -43 0 -4 -17 -34 -38 -65 -44 -66 -62 -105 -62 -132 0 -13 -5
-18 -15 -14 -27 11 -16 46 30 102 60 73 59 92 -10 172 -57 66 -72 97 -61 127
7 17 6 17 -10 1 -24 -24 -20 -77 12 -140 37 -73 37 -119 -1 -158 -21 -21 -38
-30 -62 -30 -44 0 -42 18 7 64 39 36 47 57 33 92 -5 13 -9 10 -22 -17 -10 -21
-33 -43 -60 -58 -54 -30 -79 -80 -62 -125 6 -16 10 -31 8 -32 -1 -1 -39 -20
-84 -43 -117 -58 -137 -104 -104 -240 34 -140 -1 -201 -117 -201 -38 0 -53 5
-70 23 -12 13 -22 28 -22 34 0 12 69 48 112 58 34 9 60 37 61 67 0 13 -6 57
-13 100 -12 69 -12 78 3 102 22 33 4 34 -28 1 -19 -18 -25 -35 -25 -70 0 -70
-19 -133 -48 -155 -29 -24 -90 -26 -118 -6 -26 20 -9 36 53 47 51 10 73 29 73
65 l0 23 -25 -24 c-20 -21 -34 -25 -82 -25 -70 0 -88 -13 -132 -93 -36 -63
-68 -90 -102 -85 -61 9 -46 72 28 118 64 39 124 83 119 87 -2 2 -16 -2 -32 -8
-16 -6 -62 -19 -102 -29 -118 -28 -152 -77 -152 -217 0 -77 -23 -126 -70 -151
-48 -25 -133 1 -164 51 -18 28 13 47 89 54 93 9 115 29 115 110 0 75 15 128
43 149 22 16 22 16 -8 10 -39 -9 -61 -35 -82 -103 -25 -79 -59 -113 -115 -113
-34 0 -50 6 -66 23 -12 13 -19 27 -15 30 3 4 35 7 69 7 61 0 64 1 80 31 15 30
15 32 -2 24 -41 -16 -58 -17 -108 -5 -46 11 -57 10 -85 -5 -19 -9 -38 -29 -44
-45 -8 -22 -20 -30 -51 -36 -31 -7 -41 -15 -46 -34 -3 -15 -16 -29 -32 -34
-52 -18 -123 50 -85 82 13 11 98 35 170 47 68 11 78 31 75 144 -3 90 -4 98
-20 87 -9 -7 -32 -34 -50 -61 -36 -54 -77 -77 -106 -59 -43 27 -18 79 61 124
28 17 68 44 87 60 l35 30 -38 -15 c-20 -8 -67 -22 -105 -31 -99 -23 -135 -53
-152 -127 -7 -29 -8 -27 -9 18 -1 59 5 71 39 78 25 4 25 4 3 12 -13 4 -20 12
-17 17 4 6 -9 7 -33 3 -25 -5 -47 -18 -66 -38 -70 -80 -65 -78 -107 -39 -43
39 -49 83 -17 116 29 28 34 29 201 30 105 1 109 2 128 27 13 17 23 55 30 110
5 46 15 90 20 97 8 9 6 12 -6 12 -11 0 -27 -23 -46 -64 -33 -74 -59 -95 -84
-67 -9 9 -16 30 -16 45 0 22 11 33 62 65 82 51 116 78 130 104 11 22 11 22
-11 3 -17 -15 -41 -21 -109 -24 -48 -2 -99 -10 -113 -18 -27 -14 -59 -68 -59
-101 0 -30 -29 -63 -55 -63 -13 0 -33 10 -45 22 -41 45 -15 94 56 105 26 4 53
18 79 42 26 24 61 44 100 55 80 24 112 41 131 71 14 22 15 33 4 91 -13 66 -13
66 -25 36 -9 -20 -24 -34 -49 -42 -27 -8 -40 -21 -51 -46 -16 -39 -32 -42 -69
-13 -51 40 -25 78 74 104 86 23 92 33 88 147 -2 54 -7 98 -11 98 -4 0 -19 -25
-32 -54 -36 -82 -95 -103 -95 -34 0 26 10 42 53 83 28 27 60 60 70 72 l19 21
-39 -18 c-82 -39 -81 -40 -65 47 8 43 16 87 18 99 3 19 14 22 118 33 235 23
365 57 358 91 -6 28 9 59 38 77 17 9 30 20 30 24 0 4 -29 12 -64 18 -57 10
-69 9 -110 -9 l-47 -20 -54 21 c-63 24 -115 63 -115 88 0 9 19 27 43 40 l43
23 85 -22 c217 -58 211 -59 277 77 37 78 54 101 80 114 l32 17 -40 16 c-50 20
-122 21 -159 1 -17 -8 -37 -33 -50 -60 -14 -30 -27 -45 -40 -45 -44 0 -163
137 -192 219 -13 36 -6 48 32 58 101 25 149 13 393 -93 191 -83 241 -96 282
-70 28 19 54 71 54 111 0 14 -13 52 -30 85 -36 71 -38 117 -8 155 l22 28 -43
-6 c-24 -3 -53 -14 -63 -25 -18 -18 -18 -22 -4 -86 29 -122 15 -150 -49 -102
-60 46 -87 125 -65 191 15 46 65 69 182 85 46 6 98 16 116 21 36 12 62 52 62
95 l0 28 -35 -34 -34 -33 -98 7 c-54 3 -133 9 -175 12 -73 6 -78 5 -103 -20
-25 -25 -26 -30 -24 -128 1 -57 -1 -113 -5 -125 -20 -61 -137 10 -182 111 -35
77 -38 153 -9 186 46 52 120 61 277 34 152 -26 270 -4 311 60 9 14 24 74 32
133 16 115 29 163 53 203 9 14 -12 -2 -47 -35 -34 -33 -70 -78 -80 -101 -22
-49 -82 -111 -116 -120 -60 -15 -125 31 -125 89 0 51 31 82 111 112 53 21 76
35 90 58 22 37 20 41 -13 26 -21 -9 -42 -6 -121 20 -116 37 -165 46 -211 37
-49 -9 -62 -39 -75 -176 -12 -119 -26 -180 -45 -192 -30 -20 -70 -7 -110 35
-73 75 -82 167 -18 167 49 0 64 20 73 96 10 79 37 114 91 114 46 0 31 8 -93
51 -128 45 -147 47 -181 19 -50 -38 -82 -151 -92 -319 l-5 -83 -55 -58 -56
-59 0 -95 c0 -108 -10 -143 -44 -156 -29 -11 -92 4 -120 28 -34 30 -76 105
-76 136 1 58 34 81 136 95 149 21 174 86 138 356 -17 133 -13 191 17 229 36
46 -2 29 -51 -22 -38 -39 -56 -73 -95 -171 -65 -161 -95 -193 -157 -160 -19
10 -19 13 20 52 35 36 72 99 72 123 0 4 -18 -14 -41 -39 -22 -26 -54 -56 -70
-68 -29 -20 -31 -20 -50 -4 -10 10 -19 22 -19 26 0 4 24 30 53 58 36 35 67 55
103 66 28 8 58 23 67 33 19 20 22 78 7 102 -8 12 -10 10 -10 -11 0 -28 -16
-49 -38 -49 -9 0 -11 7 -7 23 12 38 113 245 134 276 12 16 21 32 21 35 0 14
-145 -152 -190 -217 -77 -112 -65 -104 -163 -108 -48 -2 -87 -2 -87 1 0 10 95
97 147 134 51 36 143 132 143 149 0 4 -17 -5 -37 -22 -21 -16 -56 -32 -78 -36
-251 -39 -329 -92 -399 -272 -22 -54 -54 -128 -72 -165 l-33 -66 -43 10 c-24
5 -62 8 -85 6 -24 -2 -43 0 -43 5 0 28 38 71 85 98 55 31 61 39 115 164 25 59
58 96 120 137 41 27 42 29 15 24 -16 -4 -69 -13 -116 -20 -47 -8 -100 -21
-116 -30 -57 -29 -123 -116 -187 -246 -61 -123 -81 -179 -126 -345 -11 -44
-33 -111 -47 -148 l-25 -68 -118 -59 c-131 -66 -122 -67 -135 17 -11 69 32
286 64 327 13 17 105 204 131 266 13 30 29 71 37 90 8 19 10 31 5 25 -24 -24
-446 -664 -527 -798 -83 -139 -92 -150 -139 -174 -225 -114 -380 -253 -393
-353 -4 -26 -9 -37 -14 -29 -12 21 -22 -36 -15 -89 3 -26 13 -75 22 -109 l16
-62 -100 -118 c-117 -139 -169 -188 -228 -214 -40 -18 -46 -18 -80 -4 -33 14
-39 14 -60 0 -28 -18 -39 -54 -29 -93 4 -15 14 -92 23 -170 16 -135 19 -145
44 -167 l28 -24 -28 -19 c-15 -10 -104 -64 -199 -120 -674 -401 -1273 -888
-1273 -1035 0 -26 3 -29 26 -23 66 17 187 122 312 269 115 136 322 247 322
172 0 -48 -141 -156 -490 -375 -107 -67 -223 -144 -257 -172 -111 -88 -198
-199 -273 -347 -17 -35 -55 -89 -83 -120 l-52 -55 65 50 c35 27 130 112 210
189 148 144 224 206 319 264 64 39 89 36 67 -7 -24 -46 -185 -193 -338 -308
-134 -100 -418 -332 -418 -340 0 -2 46 29 103 70 56 40 185 127 287 192 102
65 223 147 270 183 169 129 376 360 515 576 22 33 93 114 160 180 163 164 334
277 475 315 23 6 45 9 48 5 3 -3 -39 -51 -93 -105 -55 -55 -95 -100 -89 -100
17 0 150 96 173 126 11 15 21 39 21 54 0 22 36 61 201 216 111 104 207 192
215 197 7 4 44 2 81 -4 46 -7 103 -7 173 -1 l105 9 31 -27 c80 -69 201 -100
317 -82 39 7 81 14 93 18 20 5 20 3 11 -78 -15 -129 -14 -626 1 -758 104 -921
557 -1436 1326 -1511 118 -11 295 -7 419 10 l59 8 319 -346 c175 -190 319
-348 319 -351 0 -3 -70 -59 -156 -125 -153 -117 -161 -125 -347 -349 -104
-126 -190 -236 -191 -245 -1 -18 -40 -34 -134 -56 -76 -18 -114 -19 -253 -3
-99 11 -113 10 -195 -10 -100 -25 -220 -23 -308 5 -128 40 -326 -41 -415 -170
-15 -23 -32 -52 -36 -65 -6 -20 1 -17 55 22 73 54 126 72 164 55 31 -14 32
-22 7 -57 -10 -15 -22 -37 -26 -50 -6 -20 2 -17 55 23 75 54 101 62 154 46 23
-7 86 -18 141 -24 l100 -12 -22 -45 c-12 -25 -22 -65 -23 -89 l0 -44 39 54
c57 79 108 104 163 78 18 -7 59 -5 163 10 77 12 208 26 290 32 117 8 162 15
205 33 30 13 111 38 179 57 l124 33 96 80 c53 45 115 90 139 100 25 12 38 22
31 26 -11 8 95 97 286 240 55 41 146 119 202 173 82 79 106 97 123 92 13 -4
29 1 46 14 22 17 30 19 43 9 14 -12 14 -11 0 12 -9 14 -26 29 -37 35 -26 11
-26 14 -6 40 14 19 17 18 66 -38 41 -47 55 -57 74 -53 l22 6 -29 -108 c-16
-59 -37 -136 -46 -171 -9 -34 -30 -84 -48 -110 -17 -25 -50 -80 -73 -122 -23
-41 -50 -83 -60 -93 -30 -26 -80 -30 -173 -12 -99 19 -143 20 -169 6 -10 -6
-39 -37 -64 -69 -44 -56 -47 -59 -103 -66 -32 -4 -93 -7 -136 -6 -64 2 -84 -2
-112 -19 -50 -31 -112 -105 -145 -175 -27 -57 -57 -190 -48 -216 2 -7 18 18
36 54 31 63 80 117 106 117 6 0 21 -7 33 -15 18 -13 20 -19 11 -59 -5 -25 -8
-58 -6 -73 3 -26 5 -24 30 27 16 30 36 66 46 78 22 28 77 42 113 28 18 -6 49
-5 103 6 l76 15 0 -76 c0 -91 9 -153 21 -145 5 3 9 15 9 28 0 36 29 122 49
147 30 38 112 35 243 -9 l108 -35 112 42 c89 34 120 51 148 81 19 21 77 68
128 105 50 37 92 72 92 79 0 7 -18 63 -40 125 -22 61 -40 118 -40 126 0 8 14
31 32 50 22 26 28 39 19 44 -19 12 88 220 277 541 165 280 169 285 199 283 20
-2 36 4 48 17 14 15 21 17 32 9 7 -7 16 -10 18 -7 6 6 -48 64 -64 69 -11 4
-11 9 0 27 8 12 17 22 20 22 4 0 25 -25 48 -55 50 -66 78 -71 137 -25 l38 31
-54 -3 c-46 -3 -55 0 -58 16 -7 34 13 37 81 11 37 -14 70 -25 73 -25 7 0 -104
102 -124 114 -9 5 -30 3 -54 -5 -49 -16 -64 -4 -39 34 16 24 19 26 31 12 7 -8
31 -20 53 -26 22 -6 54 -21 71 -34 71 -52 96 -53 121 -4 14 25 14 28 0 23 -8
-4 -26 1 -39 9 -13 9 -33 13 -44 10 -23 -6 -46 26 -36 51 8 22 14 21 67 -15
26 -17 54 -29 63 -27 9 2 28 20 41 42 l25 38 -39 -6 c-44 -7 -69 5 -60 28 7
18 37 20 85 7 46 -14 39 0 -17 32 -57 32 -69 29 -128 -25 -44 -39 -51 -42 -78
-32 -21 8 -46 59 -39 78 8 22 18 20 52 -9 38 -32 44 -31 85 5 19 17 40 30 46
30 6 0 11 5 11 10 0 14 -31 12 -60 -5 -14 -8 -34 -14 -46 -15 -22 0 -54 28
-54 48 0 19 24 14 38 -8 7 -11 19 -20 27 -20 20 0 19 6 -5 33 -11 12 -27 30
-36 40 -25 30 -47 15 -84 -57 -41 -81 -74 -102 -91 -59 -17 45 -8 69 24 65 15
-2 35 2 44 9 13 12 11 15 -18 25 -53 19 -77 17 -95 -11 -24 -37 -28 -34 -62
39 -3 4 9 5 26 1 18 -3 33 -2 37 4 3 6 -1 11 -9 11 -9 0 -32 18 -52 40 -20 22
-42 40 -50 40 -7 0 -21 14 -30 32 -34 66 -157 265 -195 316 -40 52 -40 52 -17
61 96 37 140 57 235 105 442 222 775 589 976 1076 68 167 135 407 152 550 3
30 11 71 17 90 33 110 173 149 240 66 24 -28 22 -52 -8 -186 -93 -409 52 -865
423 -1325 206 -256 523 -541 739 -665 22 -13 45 -32 50 -42 5 -9 151 -131 324
-269 173 -138 316 -255 318 -259 2 -5 -59 -75 -135 -155 -129 -137 -150 -165
-312 -418 -95 -150 -174 -279 -176 -287 -1 -8 -44 -37 -96 -63 -85 -44 -106
-50 -229 -68 -117 -17 -147 -26 -225 -64 -95 -46 -145 -56 -280 -59 -67 -1
-89 -6 -139 -31 -110 -55 -243 -201 -271 -295 -6 -19 8 -10 62 42 72 69 104
85 148 74 l25 -6 -25 -50 c-14 -27 -25 -54 -25 -60 0 -5 28 19 63 54 54 55 69
65 109 71 26 4 51 4 56 1 6 -3 48 1 93 9 46 8 89 15 95 15 7 0 4 -19 -7 -52
-10 -29 -18 -71 -19 -93 l0 -39 43 68 c52 86 80 107 143 110 30 2 104 24 194
59 80 30 199 72 265 93 68 21 135 49 155 64 19 15 92 57 162 94 122 64 131 71
213 164 46 53 100 108 119 122 20 14 34 30 32 36 -2 6 28 46 66 90 104 116
372 426 380 438 5 8 14 7 28 -1 27 -17 45 -16 61 3 7 8 21 13 31 11 10 -3 18
-2 18 2 0 15 -47 51 -65 51 -17 0 -16 2 5 25 l24 26 52 -58 51 -58 34 18 c79
41 84 46 68 52 -9 3 -28 1 -42 -4 -36 -14 -57 -4 -57 25 0 29 5 29 70 4 58
-23 99 -27 64 -7 -12 7 -33 26 -48 43 -34 41 -77 59 -104 45 -34 -18 -49 -13
-27 9 18 17 25 18 60 9 21 -6 53 -22 70 -34 37 -29 79 -45 91 -37 5 4 17 19
26 33 16 26 16 27 -3 22 -10 -3 -27 1 -36 8 -9 8 -28 14 -42 14 -21 0 -27 5
-29 28 -4 35 19 36 64 2 39 -30 70 -32 84 -6 5 11 17 27 26 36 15 15 13 16
-23 14 -43 -3 -63 5 -63 26 0 19 20 23 55 13 63 -17 71 -8 20 22 -27 16 -55
30 -62 30 -6 0 -33 -18 -58 -40 -49 -42 -85 -52 -85 -23 0 9 -10 27 -22 40
-22 24 -17 45 6 28 69 -51 62 -50 103 -16 21 17 43 31 50 31 7 0 13 5 13 11 0
13 -27 8 -78 -12 -38 -16 -65 -4 -70 30 -4 27 14 28 28 1 11 -21 40 -28 40
-10 0 6 -4 10 -10 10 -5 0 -16 14 -25 30 -22 43 -60 41 -82 -5 -15 -32 -41
-40 -29 -9 3 8 -1 14 -9 14 -8 0 -32 24 -54 53 l-40 52 32 7 c18 3 84 12 147
19 l116 12 256 -162 257 -162 -116 -151 c-112 -146 -119 -158 -235 -407 -65
-141 -120 -265 -121 -276 -2 -25 -43 -57 -122 -97 -43 -22 -97 -37 -193 -54
-114 -19 -143 -28 -210 -65 -82 -45 -124 -55 -283 -67 -88 -6 -100 -10 -150
-43 -78 -53 -136 -116 -169 -184 -27 -57 -49 -140 -32 -120 4 6 25 32 47 59
57 71 115 102 152 78 10 -6 9 -19 -2 -57 -9 -27 -14 -53 -12 -58 1 -4 25 20
52 55 42 52 57 64 96 74 26 6 52 8 59 4 10 -6 59 1 178 26 32 6 32 6 22 -20
-12 -32 -12 -113 0 -141 5 -11 9 -14 9 -6 1 7 14 41 31 76 23 48 38 67 65 79
20 10 44 14 55 11 13 -4 75 17 172 58 84 35 204 81 266 102 71 23 126 48 146
65 17 15 84 59 148 96 114 67 119 71 180 160 35 50 80 105 101 124 21 18 34
36 28 39 -6 4 12 37 41 76 29 39 121 171 207 295 85 124 156 227 157 228 1 2
11 -1 21 -6 14 -8 23 -6 40 10 19 17 25 19 38 8 27 -22 16 5 -15 37 -26 27
-28 32 -16 49 8 10 16 17 18 14 75 -102 107 -120 143 -80 10 11 26 22 37 26
13 4 16 10 11 15 -6 6 -20 6 -38 -1 -37 -14 -55 -6 -55 25 0 14 2 25 4 25 2 0
33 -11 70 -25 36 -14 66 -21 65 -17 -1 4 -25 29 -55 56 -53 48 -76 56 -122 41
-21 -7 -22 -6 -11 19 8 17 16 23 23 17 6 -5 25 -12 43 -16 18 -3 42 -14 55
-24 13 -10 38 -26 57 -36 l35 -18 24 28 24 28 -39 13 c-21 8 -46 14 -55 14
-23 0 -44 38 -29 53 11 11 27 5 88 -34 l32 -20 18 22 c10 12 27 31 37 42 19
20 19 20 -18 14 -47 -8 -66 0 -66 25 0 19 4 20 58 14 l57 -7 -36 25 c-58 40
-83 38 -133 -9 -41 -39 -74 -44 -99 -17 -18 20 -23 72 -8 72 5 0 23 -11 39
-25 36 -30 44 -31 68 -4 10 12 33 28 49 35 23 9 26 14 14 19 -8 3 -35 -3 -59
-14 -47 -21 -75 -14 -86 22 -9 29 4 33 29 9 39 -37 50 -24 15 18 -43 55 -65
51 -100 -20 -14 -30 -37 -63 -49 -73 -22 -18 -24 -18 -36 -1 -7 10 -13 31 -13
47 0 25 3 29 22 24 21 -6 58 7 58 21 0 4 -21 14 -46 21 l-47 14 -26 -32 c-31
-38 -55 -40 -77 -6 -25 39 -12 57 35 49 l40 -6 -43 45 c-56 60 -87 68 -121 31
l-26 -28 -65 65 -65 65 79 61 c270 210 491 566 624 1007 48 161 92 375 115
559 15 120 15 151 4 245 -41 335 -116 618 -218 817 -106 208 -235 329 -556
521 -303 182 -342 210 -487 360 -222 227 -332 394 -328 497 0 18 -2 42 -6 54
-4 13 5 56 23 113 17 50 30 94 29 98 -1 4 6 30 15 57 12 35 34 67 70 103 49
48 55 51 119 58 73 7 204 -8 283 -33 49 -15 159 -72 153 -78 -2 -2 -39 5 -83
15 -44 11 -84 19 -90 20 -5 0 67 -38 160 -84 187 -92 261 -148 322 -244 19
-29 33 -55 31 -57 -2 -2 -30 3 -63 11 -89 20 -88 19 10 -37 50 -29 92 -56 93
-60 2 -5 9 -9 15 -9 36 -1 227 -125 310 -202 172 -157 182 -163 45 -22 l-137
141 -97 196 c-54 108 -99 196 -100 194 -1 -1 6 -47 15 -101 l18 -99 -38 44
c-21 24 -46 64 -55 89 -23 62 -90 163 -156 236 -30 33 -92 120 -138 192 -46
73 -85 130 -87 129 -1 -2 13 -45 32 -96 19 -52 35 -94 35 -95 0 -1 -52 24
-115 55 -154 76 -358 129 -501 129 -48 0 -51 2 -67 35 -16 34 -39 45 -52 25
-4 -6 -11 -8 -16 -5 -19 12 -8 -17 15 -40 23 -23 23 -25 5 -30 -25 -8 -35 -1
-44 32 -9 37 -33 73 -48 72 -6 0 -22 -5 -34 -11z m-93 -243 c-14 -17 -40 -20
-40 -6 0 8 18 16 44 20 5 0 3 -6 -4 -14z m-6570 -464 c0 -14 -17 -28 -60 -49
l-60 -29 -6 24 c-8 29 -11 26 56 51 69 26 70 26 70 3z m30 -135 c0 -13 -7 -29
-16 -37 -24 -20 -44 -65 -44 -101 0 -41 -17 -105 -37 -134 -12 -19 -19 -21
-45 -13 -39 11 -48 24 -48 70 0 57 44 133 112 189 33 27 64 50 69 50 5 0 9
-11 9 -24z m-245 -63 c-3 -10 -11 -40 -18 -66 -10 -44 -12 -47 -24 -31 -21 29
-16 81 9 98 29 21 42 20 33 -1z m3310 -251 c-15 -13 -29 -21 -31 -19 -2 2 1
20 7 41 10 37 11 37 31 20 20 -19 20 -19 -7 -42z m3444 -58 c34 -43 25 -60
-12 -22 -31 31 -37 48 -17 48 5 0 18 -12 29 -26z m95 -140 c7 -19 2 -18 -19 6
-16 17 -16 20 -3 15 9 -4 19 -13 22 -21z m114 -132 c2 -12 0 -22 -5 -22 -12 0
-33 37 -26 44 12 12 28 0 31 -22z m57 -62 c3 -5 -1 -10 -9 -10 -9 0 -16 5 -16
10 0 6 4 10 9 10 6 0 13 -4 16 -10z m35 -65 c0 -8 -6 -15 -14 -15 -7 0 -19 7
-26 15 -11 13 -8 15 14 15 16 0 26 -5 26 -15z m109 -134 c9 -15 5 -18 -25 -19
-30 -1 -45 13 -29 29 11 12 46 6 54 -10z m-7425 -202 c-87 -87 -105 -100 -129
-97 -27 3 -20 10 91 100 65 53 123 97 129 97 5 1 -35 -44 -91 -100z m-326
-320 c8 -3 -5 -22 -34 -49 l-46 -45 7 35 c14 66 23 82 42 72 10 -5 24 -11 31
-13z m-303 -329 c-21 -22 -44 -40 -50 -40 -9 1 74 79 85 80 2 0 -14 -18 -35
-40z m8434 -5 c20 0 27 -6 29 -23 2 -13 -2 -29 -8 -37 -10 -12 -17 -12 -49 5
-21 10 -43 26 -51 35 -11 13 -10 18 6 29 15 11 22 12 33 3 8 -7 26 -12 40 -12z
m-5139 -32 c0 -21 -4 -24 -22 -19 -13 3 -26 6 -30 6 -9 0 -11 34 -3 42 3 3 17
3 30 0 19 -3 25 -11 25 -29z m106 -3 c24 -9 30 -32 18 -63 -4 -13 -15 -9 -52
20 -26 19 -51 42 -56 51 -7 12 -3 14 29 8 20 -4 48 -11 61 -16z m-146 -80 c0
-19 -3 -52 -6 -73 -9 -54 -34 -30 -34 34 0 60 17 110 30 89 6 -8 10 -31 10
-50z m-1834 13 c-8 -15 -15 -25 -16 -21 0 12 23 58 27 54 3 -2 -2 -17 -11 -33z
m-1539 -47 c2 -2 0 -25 -4 -52 l-8 -48 -80 -17 c-109 -24 -186 -24 -235 1 -21
11 -41 24 -44 29 -3 5 47 29 112 54 109 43 122 46 186 41 39 -2 71 -6 73 -8z
m6798 -45 c-12 -11 -31 -14 -70 -11 -25 3 -23 4 15 10 25 4 49 8 55 8 6 1 6
-1 0 -7z m-3303 -127 c8 -7 -22 -94 -32 -94 -17 0 -19 34 -4 66 16 33 25 40
36 28z m-92 -142 c0 -13 -4 -20 -10 -17 -5 3 -10 21 -10 38 0 24 3 28 10 17 5
-8 10 -25 10 -38z m-252 -167 c82 -42 142 -86 142 -106 0 -4 -17 -28 -37 -53
-30 -36 -45 -45 -70 -45 l-33 -1 0 65 c0 57 -3 69 -26 92 -14 14 -23 31 -20
39 3 8 2 14 -2 14 -12 -1 -37 -42 -56 -93 -19 -50 -47 -77 -82 -77 -30 0 -46
23 -38 55 5 21 118 155 130 155 2 0 43 -20 92 -45z m3782 -57 c0 -13 3 -33 6
-45 5 -20 2 -23 -20 -23 -24 0 -26 4 -26 38 0 21 3 42 7 45 14 15 33 6 33 -15z
m980 -118 c0 -18 -16 -11 -45 20 -23 24 -26 32 -15 44 10 14 15 11 36 -20 13
-19 24 -39 24 -44z m-6321 -192 c-6 -15 -14 -28 -17 -28 -4 0 -23 17 -44 37
l-38 37 30 13 c19 7 36 25 44 45 8 18 18 37 23 41 13 14 15 -113 2 -145z
m5336 133 c10 -18 -17 -23 -33 -7 -15 15 -15 16 5 16 12 0 24 -4 28 -9z
m-3831 -46 c22 -17 25 -12 -46 -66 l-28 -20 0 30 c0 16 -3 36 -6 44 -10 26 50
34 80 12z m4906 -21 c0 -16 -8 -28 -25 -36 -14 -6 -25 -20 -25 -30 0 -23 -57
-50 -88 -41 -27 7 -30 44 -6 64 27 23 128 76 137 72 4 -2 7 -15 7 -29z m-5036
-55 c-15 -15 -31 -26 -36 -23 -18 12 -6 43 25 63 28 18 32 18 35 5 2 -9 -9
-29 -24 -45z m4806 36 c0 -27 -6 -30 -29 -16 -12 8 -12 12 -2 25 19 23 31 20
31 -9z m-68 -97 c21 -12 18 -13 -37 -18 -69 -6 -95 2 -95 31 0 14 13 26 43 39
l42 19 12 -29 c7 -16 23 -35 35 -42z m-5093 -95 c16 -39 9 -63 -18 -63 -15 0
-20 10 -25 45 -8 48 -21 66 -30 38 -6 -18 -44 -48 -52 -41 -2 2 8 26 21 53 13
28 25 61 25 75 0 21 4 18 33 -25 18 -28 39 -65 46 -82z m4864 97 c18 -30 18
-30 -6 -30 -14 0 -31 10 -40 23 -14 20 -16 20 -16 3 -1 -16 -6 -18 -48 -12
-27 4 -70 9 -98 12 -27 3 -57 8 -65 10 -38 13 24 24 135 24 l121 0 17 -30z
m-5106 -110 c-21 -25 -24 -35 -17 -60 7 -24 6 -30 -6 -30 -25 0 -54 20 -54 36
0 8 -4 12 -10 9 -15 -9 -12 31 3 43 12 10 71 29 95 31 9 1 4 -11 -11 -29z
m-458 -11 c6 -18 11 -34 11 -36 0 -2 -17 -3 -37 -1 -43 3 -54 25 -28 52 25 24
42 19 54 -15z m1311 -1792 c72 -48 118 -88 148 -125 50 -66 53 -86 13 -100
-35 -12 -71 8 -71 39 0 25 16 24 32 -1 7 -11 22 -20 33 -19 19 0 19 1 -2 16
-13 8 -23 22 -23 29 0 7 -11 21 -25 30 -32 21 -50 8 -77 -56 -20 -45 -45 -80
-58 -80 -5 0 -11 11 -14 24 -3 13 -9 32 -13 42 -5 14 -3 16 11 11 19 -7 56 8
56 22 0 5 -22 15 -49 22 -42 10 -51 18 -68 53 -30 62 -134 196 -221 288 l-77
81 150 -103 c83 -56 197 -134 255 -173z m101 -253 c16 -17 31 -24 46 -21 13 2
23 0 23 -4 0 -16 -40 -49 -59 -49 -25 0 -61 45 -61 76 0 31 21 30 51 -2z m42
-124 c-3 -11 -7 -20 -9 -20 -2 0 -4 9 -4 20 0 11 4 20 9 20 5 0 7 -9 4 -20z
m-135 -19 c15 -10 41 -22 59 -25 17 -4 37 -14 44 -22 20 -25 2 -27 -30 -3 -26
19 -34 21 -56 11 -14 -7 -35 -12 -47 -12 -16 0 -19 4 -14 23 3 12 6 28 6 35 0
16 7 15 38 -7z m87 -137 c0 -13 -8 -20 -27 -22 -24 -3 -28 0 -28 21 0 13 3 26
6 30 12 11 49 -11 49 -29z"/>
<path d="M3755 6978 l-90 -93 93 90 c50 49 92 91 92 92 0 8 -12 -4 -95 -89z"/>
<path d="M3649 6863 c-13 -16 -12 -17 4 -4 9 7 17 15 17 17 0 8 -8 3 -21 -13z"/>
<path d="M1658 3818 c-105 -61 -108 -63 -108 -98 0 -19 -4 -52 -9 -72 -11 -48
-3 -48 31 0 14 20 65 81 112 135 48 53 85 97 84 97 -2 0 -51 -28 -110 -62z"/>
<path d="M1498 3553 c-42 -64 -61 -106 -46 -101 14 5 39 45 63 101 19 47 14
47 -17 0z"/>
</g>
</svg>
