<?xml version="1.0" standalone="no"?>
<!DOCTYPE svg PUBLIC "-//W3C//DTD SVG 20010904//EN"
 "http://www.w3.org/TR/2001/REC-SVG-20010904/DTD/svg10.dtd">
<svg version="1.0" xmlns="http://www.w3.org/2000/svg"
 width="1112.000000pt" height="1280.000000pt" viewBox="0 0 1112.000000 1280.000000"
 preserveAspectRatio="xMidYMid meet">
<g transform="translate(0.000000,1280.000000) scale(0.100000,-0.100000)"
fill="#000000" stroke="none">
<path d="M2965 12675 c28 -25 90 -74 139 -108 49 -34 124 -94 166 -133 43 -39
110 -92 150 -119 41 -27 114 -90 164 -140 59 -58 113 -102 153 -123 46 -24 68
-43 87 -76 34 -58 134 -148 204 -183 46 -24 63 -40 89 -85 41 -70 124 -147
196 -181 63 -29 87 -70 62 -104 -8 -10 -14 -42 -15 -75 0 -77 -46 -201 -104
-282 -25 -35 -146 -165 -270 -290 -185 -186 -226 -231 -226 -254 0 -15 -6 -36
-14 -47 -23 -34 -46 -125 -46 -186 0 -83 33 -182 76 -224 19 -19 40 -35 47
-35 7 0 35 -14 63 -31 70 -45 92 -49 165 -32 35 8 81 15 101 17 48 2 67 21 98
98 l25 62 103 38 c57 21 187 59 290 84 103 25 211 56 241 69 29 14 71 25 92
25 33 0 39 -3 39 -21 0 -12 -13 -47 -29 -78 -16 -31 -48 -99 -71 -151 -109
-246 -146 -321 -198 -400 -89 -135 -258 -300 -527 -515 -317 -254 -336 -275
-436 -470 -52 -103 -51 -102 -187 -104 -100 -1 -97 -3 -287 134 l-147 105
-171 -6 c-95 -3 -185 -10 -200 -16 -15 -6 -64 -53 -108 -105 -45 -51 -89 -98
-98 -103 -12 -6 -60 1 -147 20 -244 53 -519 64 -649 24 -55 -16 -340 -19 -415
-4 -25 5 -144 14 -266 20 -199 10 -227 10 -290 -6 -51 -13 -126 -18 -283 -22
-182 -3 -221 -7 -258 -23 -33 -14 -238 -59 -270 -59 -2 0 -3 -10 -3 -23 0 -30
37 -64 125 -115 68 -41 180 -140 220 -196 19 -26 27 -29 105 -36 133 -12 141
-6 155 112 11 88 12 89 135 79 58 -5 122 -16 142 -25 48 -21 91 -20 285 4 144
18 184 19 394 10 129 -5 260 -16 291 -23 81 -20 208 -70 205 -81 -2 -5 -30
-26 -63 -45 -82 -50 -100 -89 -109 -241 -7 -130 -11 -149 -66 -312 -38 -111
-39 -120 -27 -160 7 -26 13 -99 13 -183 l0 -140 30 3 c80 9 270 133 358 233
56 64 70 108 64 199 -5 83 -16 103 -72 136 -25 14 -45 30 -45 34 0 23 66 104
95 116 33 14 45 31 45 65 0 10 14 31 32 46 18 16 58 52 89 81 32 30 65 52 78
52 12 0 108 -33 214 -74 105 -41 239 -88 297 -106 363 -110 446 -139 487 -175
22 -19 61 -43 85 -54 48 -21 157 -129 234 -231 27 -36 74 -92 104 -125 30 -33
71 -85 89 -115 47 -75 78 -108 116 -120 18 -6 37 -21 42 -33 18 -38 155 -217
278 -362 136 -160 436 -473 805 -839 446 -442 469 -462 784 -674 155 -104 349
-225 431 -269 201 -108 474 -244 558 -277 45 -18 85 -43 119 -76 29 -28 60
-52 69 -55 27 -9 28 -23 8 -130 -21 -113 -24 -270 -8 -330 6 -22 37 -87 68
-145 31 -58 68 -138 83 -179 15 -40 39 -88 52 -106 14 -18 48 -87 75 -153 27
-66 67 -150 90 -187 22 -37 48 -88 57 -114 9 -25 28 -71 42 -101 13 -30 26
-65 27 -77 4 -27 66 -139 105 -188 40 -50 38 -62 -10 -70 -22 -4 -40 -11 -40
-16 0 -24 -47 -5 -87 36 -46 49 -53 53 -53 31 0 -8 17 -28 37 -44 34 -27 36
-32 26 -53 -26 -54 -24 -76 5 -47 14 14 17 11 27 -21 5 -16 4 -21 -4 -17 -6 4
-11 0 -11 -9 0 -23 49 -115 61 -115 6 0 9 3 7 8 -2 4 -10 19 -17 35 -17 32 -9
46 15 26 12 -9 9 2 -10 38 -30 61 -32 78 -10 87 31 12 99 -32 154 -100 58 -72
130 -137 181 -162 49 -26 59 -49 31 -72 -19 -16 -33 -18 -70 -13 -60 7 -110
30 -125 57 -7 12 -38 46 -69 75 -45 41 -58 49 -58 35 0 -21 57 -86 105 -121
16 -12 26 -25 22 -29 -11 -11 -137 53 -144 74 -3 9 -35 44 -70 77 -35 33 -75
78 -88 100 -21 34 -24 37 -25 17 0 -32 23 -71 65 -111 20 -18 47 -48 61 -67
23 -30 24 -35 11 -49 -24 -24 -37 -19 -88 37 -26 29 -51 49 -55 45 -10 -9 15
-58 40 -78 19 -16 19 -17 -2 -24 -29 -8 -19 -25 15 -25 30 0 88 -34 97 -55 7
-19 123 -95 145 -95 12 0 12 3 3 12 -7 7 -12 15 -12 19 0 13 131 3 140 -10 5
-9 10 -10 14 -2 11 17 54 13 75 -8 14 -14 22 -16 30 -8 15 15 44 -14 35 -36
-7 -18 -49 -23 -59 -7 -4 7 -12 7 -25 0 -22 -12 -64 1 -77 25 -11 19 -76 23
-97 5 -13 -10 -22 -9 -52 5 -30 14 -38 15 -45 4 -6 -10 2 -18 29 -30 72 -32
105 -39 119 -28 9 8 17 8 27 0 7 -6 21 -9 29 -5 9 3 33 0 54 -7 21 -7 47 -14
58 -15 11 -1 32 -7 47 -13 52 -20 2 -62 -54 -46 -38 11 -78 29 -78 36 0 3 -16
6 -36 7 -20 1 -45 4 -54 7 -10 3 -21 1 -25 -5 -7 -11 -6 -11 68 -29 27 -6 65
-19 85 -28 37 -16 67 -23 109 -23 12 0 25 -5 29 -11 6 -11 -15 -122 -38 -199
-33 -108 -295 -628 -400 -792 -67 -105 -86 -164 -94 -294 -3 -60 -17 -154 -30
-209 -66 -267 -66 -266 -53 -419 7 -78 13 -142 15 -144 1 -2 28 10 60 26 33
16 70 33 84 37 14 4 40 19 59 34 l33 25 23 -27 c19 -25 28 -28 86 -29 35 -1
100 4 144 9 67 9 83 15 103 39 27 30 25 73 -4 105 -35 39 14 113 98 149 29 12
62 31 74 41 11 10 41 23 67 28 63 11 77 25 77 76 0 77 83 378 216 780 45 138
106 324 134 414 34 107 72 203 109 275 63 121 80 175 85 279 3 51 9 74 24 90
11 12 23 33 27 47 10 32 24 50 41 50 10 0 11 -6 4 -25 -5 -14 -6 -25 -3 -25
17 0 113 66 113 77 0 7 5 12 12 11 7 -2 12 2 13 7 0 12 46 65 55 65 4 0 7 -15
8 -34 1 -23 -8 -47 -26 -72 -47 -65 -200 -327 -227 -389 -18 -40 -23 -61 -16
-68 15 -15 19 -8 34 50 12 45 53 122 162 303 81 135 155 239 206 289 137 136
150 140 170 53 6 -29 3 -43 -18 -79 -38 -65 -22 -52 32 27 50 72 63 81 85 55
10 -12 10 -19 2 -27 -7 -7 -12 -34 -12 -62 0 -79 -30 -129 -113 -187 -77 -53
-115 -69 -126 -50 -5 7 -19 -6 -39 -36 -18 -26 -53 -76 -78 -111 -32 -44 -43
-67 -36 -74 7 -7 16 1 30 28 11 22 34 49 51 62 20 14 28 27 24 38 -6 17 41 63
65 64 18 0 15 -17 -5 -29 -14 -7 -15 -12 -4 -24 16 -20 -3 -58 -64 -127 -25
-28 -45 -53 -45 -56 0 -11 59 40 70 61 7 13 23 28 36 34 13 6 24 15 24 21 0 5
5 10 10 10 27 0 1 -60 -31 -72 -16 -6 -46 -94 -36 -104 11 -11 42 29 68 89 15
33 34 64 43 69 20 11 21 -2 1 -28 -19 -25 -19 -34 0 -34 19 0 19 -15 -1 -73
-9 -26 -14 -52 -11 -59 5 -14 4 -17 37 73 11 31 31 68 44 82 19 20 20 27 10
41 -10 15 -12 15 -18 1 -10 -27 -29 -17 -23 13 11 55 47 124 61 119 16 -6 26
13 26 47 0 43 20 81 55 105 19 13 41 21 49 18 9 -4 16 3 20 19 4 14 18 34 31
46 27 23 34 54 11 45 -25 -10 -32 51 -8 76 11 12 23 32 26 44 4 11 14 27 22
34 14 12 15 8 9 -37 -4 -27 -12 -57 -17 -67 -15 -29 -1 -31 17 -3 27 41 49 34
41 -12 -3 -20 -6 -47 -6 -59 0 -12 -11 -35 -25 -51 -16 -20 -25 -41 -24 -63
l1 -34 8 29 c5 16 15 33 22 37 14 9 38 -7 38 -27 0 -8 6 -11 17 -7 14 6 15 -2
10 -73 -4 -43 -12 -96 -18 -117 -6 -21 -11 -91 -13 -155 -2 -119 10 -189 38
-227 13 -18 14 -15 1 26 -18 62 -26 232 -13 294 10 46 11 48 20 25 5 -14 7
-49 5 -77 -3 -29 -1 -55 4 -58 5 -4 9 17 9 47 0 29 3 84 7 121 5 60 8 68 25
64 21 -6 24 3 6 21 -16 16 -23 251 -9 272 18 26 33 -4 37 -77 3 -37 8 -102 13
-143 5 -43 5 -80 -1 -86 -5 -7 -1 -38 10 -78 13 -50 21 -63 29 -55 9 9 18 8
36 -4 24 -16 120 -47 145 -47 25 0 6 25 -24 30 -21 4 -29 11 -27 25 2 20 -26
47 -40 38 -4 -3 -3 -11 3 -18 7 -8 7 -15 1 -19 -13 -8 -42 4 -40 18 3 23 -14
56 -32 61 -10 3 -20 14 -23 23 -14 45 -28 204 -32 363 -3 148 -2 178 11 189
11 9 12 17 4 32 -13 24 -5 48 15 48 24 0 28 18 11 43 -21 32 -13 46 48 85 38
25 59 32 79 28 16 -3 28 0 31 7 3 8 10 7 24 -5 22 -20 58 -24 69 -7 4 7 0 9
-14 5 -16 -5 -52 14 -52 28 0 1 24 1 54 -1 51 -3 57 -1 87 32 19 19 40 35 47
35 9 0 0 16 -22 40 -41 46 -52 88 -13 53 34 -31 55 -39 30 -11 -36 39 -30 52
20 44 l42 -7 -33 21 c-18 11 -37 20 -42 20 -6 0 -10 5 -10 10 0 6 12 10 27 10
l26 0 -21 23 c-27 28 -28 43 -5 52 12 4 24 -1 34 -14 l17 -20 7 22 c4 12 6 40
5 62 -1 22 4 54 11 70 7 18 11 67 10 122 -3 91 -2 93 22 102 17 7 28 21 32 41
9 39 39 38 41 -1 1 -15 16 -45 34 -68 35 -44 54 -48 26 -7 -9 14 -16 28 -16
31 0 11 22 5 37 -10 21 -21 26 -14 13 20 -9 23 -8 26 5 21 23 -8 18 5 -16 52
-18 25 -28 49 -25 58 3 8 -1 28 -9 44 -8 16 -20 53 -26 82 -6 29 -19 69 -29
88 -10 19 -23 55 -30 80 -7 24 -21 55 -31 69 -10 13 -19 38 -19 56 0 18 -7 38
-15 45 -9 7 -15 20 -14 29 4 24 -22 102 -43 133 -11 16 -16 32 -13 38 8 13
-57 102 -90 124 -14 9 -25 23 -25 31 0 8 -24 38 -54 67 -29 29 -56 63 -60 74
-4 12 -30 37 -58 55 -92 61 -102 68 -138 102 -19 18 -64 47 -100 64 -82 39
-257 98 -333 113 -45 9 -82 28 -161 80 -129 87 -194 145 -242 218 -58 87 -297
405 -389 517 -139 170 -296 309 -601 533 -66 49 -150 114 -185 144 -35 29
-120 96 -189 147 -375 281 -559 464 -829 822 -69 91 -94 134 -119 201 -46 128
-65 209 -53 221 6 6 11 41 11 78 0 45 5 72 14 82 8 7 17 39 21 70 4 32 10 57
13 57 2 0 11 -8 18 -17 12 -16 13 -15 14 11 0 50 33 134 58 147 18 10 22 21
22 59 0 26 -5 62 -11 80 -9 25 -9 34 1 40 11 7 11 17 1 52 -14 51 -10 153 7
170 9 9 12 9 12 0 0 -21 36 -13 61 14 l24 27 -22 -6 c-30 -7 -39 9 -22 39 15
29 25 30 32 4 3 -11 12 -20 21 -20 9 0 16 8 16 20 0 28 14 25 28 -5 6 -14 16
-25 22 -25 5 0 10 -9 10 -20 0 -13 7 -20 19 -20 24 0 37 31 18 45 -20 14 -49
74 -42 85 9 14 49 12 63 -2 6 -6 14 -9 17 -7 8 9 -19 69 -30 69 -20 0 -55 46
-55 71 l0 24 18 -23 c11 -14 26 -22 41 -20 22 3 26 -4 47 -72 13 -41 24 -84
24 -95 0 -17 7 -20 40 -20 26 -1 40 3 40 12 0 7 -9 13 -20 13 -21 0 -43 35
-54 85 -6 30 -6 30 10 8 9 -13 20 -23 24 -23 10 0 -15 97 -29 114 -12 14 -10
59 3 89 5 10 2 31 -9 54 -17 35 -17 37 1 50 22 16 11 41 -24 59 -34 17 -62 46
-62 63 0 9 -7 25 -15 35 -9 12 -15 42 -15 71 0 29 -7 74 -15 101 -8 27 -15 64
-15 81 0 18 -14 59 -31 91 -17 32 -34 74 -39 93 -5 19 -12 44 -15 57 -7 20 -4
22 31 22 44 0 74 -8 154 -40 30 -12 51 -18 47 -14 -5 5 -43 22 -85 39 -60 24
-78 36 -80 53 -2 13 -13 24 -28 28 -13 3 -24 13 -24 22 0 8 -7 23 -16 33 -12
13 -13 22 -6 35 8 14 6 20 -11 29 -11 5 -22 21 -24 34 -2 14 -8 30 -14 37 -5
6 -8 18 -7 25 2 10 -6 13 -24 11 -29 -3 -48 22 -62 83 -4 17 -14 45 -23 62
-12 25 -13 39 -4 63 5 17 8 37 4 45 -3 9 -1 21 5 28 20 24 17 47 -8 60 -28 14
-26 9 -35 130 -7 85 -8 88 -48 131 -50 52 -81 69 -107 61 -14 -4 -20 -2 -20 9
0 23 -38 40 -55 26 -18 -15 -55 -4 -55 16 0 8 -8 18 -17 21 -21 8 -108 80
-171 141 -24 23 -51 42 -62 42 -10 0 -25 8 -32 18 -7 10 -29 26 -48 36 -28 14
-39 15 -62 5 -39 -16 -45 -6 -25 47 18 48 16 64 -9 64 -17 0 -19 21 -3 37 30
30 -75 95 -139 85 -20 -2 -47 4 -75 17 -24 12 -48 21 -53 21 -5 0 -21 8 -34
17 -14 10 -34 17 -45 15 -28 -2 -115 75 -96 87 21 13 -4 51 -34 51 -14 0 -25
5 -25 12 0 6 29 70 65 142 65 130 96 219 82 233 -9 8 -6 10 -121 -82 -62 -50
-117 -83 -190 -115 -57 -25 -115 -53 -129 -62 -35 -24 -54 -23 -71 5 -19 29
-145 94 -154 80 -4 -5 -50 -13 -102 -17 l-96 -6 -36 37 c-59 63 -184 238 -211
297 -14 31 -31 56 -36 56 -16 0 -13 -42 4 -83 8 -19 17 -72 21 -118 3 -46 12
-112 20 -147 16 -72 10 -116 -14 -107 -21 8 -60 -20 -64 -47 -4 -27 -3 -27
-88 8 -47 20 -84 28 -131 28 -61 1 -68 3 -93 33 -54 64 -199 133 -280 133 -28
0 -47 10 -88 47 -58 51 -169 107 -247 124 -27 6 -67 24 -88 40 -60 49 -143 95
-225 128 -42 17 -105 50 -140 73 -35 24 -110 68 -168 97 -58 30 -116 61 -130
71 -14 9 -43 27 -65 39 l-40 23 50 -47z m3530 -1465 c0 -18 -33 -26 -47 -12
-6 6 -7 15 -3 22 10 16 50 8 50 -10z m81 -64 c13 -10 16 -18 9 -25 -13 -13
-59 15 -50 30 8 13 18 11 41 -5z m163 -109 c6 -8 8 -16 5 -20 -10 -9 -34 4
-34 19 0 18 14 18 29 1z m47 -115 c66 -14 84 -34 42 -46 -15 -4 -33 1 -50 14
-15 11 -33 20 -41 20 -7 0 -22 7 -33 16 -18 14 -18 15 11 10 17 -3 48 -9 71
-14z m112 -64 c11 -14 15 -38 13 -75 -1 -17 -7 -23 -24 -23 -16 0 -29 12 -46
44 -13 23 -21 48 -17 55 10 15 61 14 74 -1z m332 -1170 c6 -35 14 -70 16 -79
5 -20 -25 -34 -40 -19 -6 6 -12 44 -14 85 -3 61 -1 75 11 75 10 0 18 -20 27
-62z m0 -187 c0 -21 -16 -2 -24 29 -7 24 -6 24 8 6 9 -11 16 -27 16 -35z m-55
-201 c3 -5 1 -10 -4 -10 -6 0 -11 5 -11 10 0 6 2 10 4 10 3 0 8 -4 11 -10z
m-15 -30 c9 -5 19 -5 26 1 9 7 16 4 23 -10 16 -28 14 -34 -9 -28 -11 3 -20 1
-20 -4 0 -17 -29 -9 -40 10 -19 37 -11 51 20 31z m-233 -916 c-9 -9 -28 6 -21
18 4 6 10 6 17 -1 6 -6 8 -13 4 -17z m2619 -3261 c128 -180 165 -324 130 -503
-37 -186 -49 -481 -21 -480 6 0 8 -29 6 -70 -4 -99 15 -88 22 13 6 88 20 137
38 137 8 0 9 -14 5 -44 -5 -34 -4 -46 8 -53 10 -6 17 -28 19 -66 2 -41 9 -61
22 -71 17 -12 18 -24 12 -137 -3 -68 -11 -137 -18 -154 -7 -16 -11 -49 -10
-72 6 -89 -35 -147 -111 -159 -22 -4 -38 -12 -38 -20 0 -10 -15 -14 -55 -14
-52 0 -55 -1 -55 -25 0 -14 -2 -25 -5 -25 -3 0 -16 11 -29 25 -27 29 -36 31
-36 10 0 -23 -23 -28 -56 -10 -37 19 -40 19 -40 -5 0 -15 7 -20 26 -20 l25 -1
-30 -24 c-23 -19 -38 -24 -65 -20 -26 3 -28 3 -11 -3 37 -11 36 -27 -6 -61
-36 -30 -83 -42 -83 -21 0 6 -11 10 -25 10 -15 0 -25 -6 -25 -14 0 -9 7 -12
20 -9 11 3 20 0 20 -6 0 -15 -24 -14 -89 6 -68 21 -68 20 -53 35 17 17 15 38
-3 31 -9 -3 -22 -21 -30 -40 -11 -25 -19 -33 -31 -29 -8 3 -20 6 -25 6 -16 0
-10 29 9 39 20 12 19 12 -30 15 -21 2 -39 -1 -39 -6 -1 -4 -2 -14 -3 -20 -1
-8 -14 -12 -34 -10 -21 1 -31 -2 -27 -8 3 -5 12 -10 20 -10 8 0 18 -6 22 -13
10 -16 97 -39 101 -26 5 12 42 11 81 -2 37 -13 39 -45 3 -43 -12 0 -22 -3 -22
-8 0 -4 5 -8 10 -8 6 0 10 -6 10 -14 0 -16 -78 -33 -105 -22 -9 3 -24 0 -34
-6 -27 -17 -219 11 -303 44 -22 8 -29 20 -39 66 -12 58 -7 148 12 214 5 22 33
63 63 95 29 32 85 103 126 157 40 55 123 150 185 210 148 145 242 294 317 501
78 215 90 257 104 365 8 63 26 162 39 220 13 58 27 137 30 175 8 75 12 88 24
80 5 -2 39 -48 77 -102z m-855 -2055 c21 1 39 -3 39 -9 0 -5 -3 -9 -7 -9 -5 0
-14 -4 -22 -9 -12 -8 -13 -12 -1 -25 7 -9 10 -19 8 -22 -12 -11 -60 10 -75 32
-16 25 -11 60 8 48 6 -3 28 -6 50 -6z m1192 -148 c-6 -24 -23 -37 -23 -18 0
12 18 38 26 38 1 0 0 -9 -3 -20z m-53 -145 c0 -8 -4 -15 -10 -15 -5 0 -10 7
-10 15 0 8 5 15 10 15 6 0 10 -7 10 -15z m0 -109 c0 -15 -18 -31 -26 -23 -7 7
7 37 17 37 5 0 9 -6 9 -14z m-1827 -56 c4 0 7 8 7 18 1 14 5 12 24 -10 26 -29
25 -68 0 -68 -18 0 -73 60 -74 79 0 11 4 11 18 -2 10 -10 22 -17 25 -17z
m1137 -95 c-7 -8 -17 -15 -22 -15 -6 0 -5 7 2 15 7 8 17 15 22 15 6 0 5 -7 -2
-15z m-1341 -99 c8 -9 12 -19 8 -23 -11 -10 -90 21 -95 37 -6 18 66 6 87 -14z
m1851 5 c0 -20 -64 -135 -67 -120 -4 19 45 129 58 129 5 0 9 -4 9 -9z m-1699
-21 c5 0 9 -7 9 -15 0 -16 -27 -20 -49 -6 -17 11 -4 34 16 27 8 -3 19 -6 24
-6z m177 -27 c5 -16 -22 -27 -44 -19 -13 5 -14 9 -4 22 15 17 41 15 48 -3z
m-318 -24 c0 -4 -7 -6 -15 -3 -8 4 -15 10 -15 15 0 4 7 6 15 3 8 -4 15 -10 15
-15z m1753 -24 c-3 -8 -9 -15 -14 -15 -10 0 -12 24 -3 33 11 11 24 -3 17 -18z
m-1096 -690 c-12 -85 -264 -807 -332 -949 -18 -39 -58 -98 -88 -131 l-54 -59
-41 12 c-40 12 -42 15 -42 51 0 53 47 140 90 168 78 50 74 44 72 121 -2 50 3
88 18 134 39 115 230 492 334 657 35 55 50 54 43 -4z"/>
<path d="M9166 3365 c4 -8 10 -15 15 -15 5 0 9 7 9 15 0 8 -7 15 -15 15 -9 0
-12 -6 -9 -15z"/>
<path d="M6990 8336 c0 -15 18 -31 26 -23 7 7 -7 37 -17 37 -5 0 -9 -6 -9 -14z"/>
<path d="M7640 2918 c0 -10 62 -83 78 -92 9 -5 2 9 -15 31 -32 40 -63 70 -63
61z"/>
<path d="M7520 2641 c0 -5 8 -19 18 -31 16 -20 20 -21 25 -7 4 10 -3 21 -19
31 -13 9 -24 12 -24 7z"/>
<path d="M11057 2633 c-4 -7 -14 -10 -22 -7 -9 4 -29 -9 -50 -32 -37 -39 -39
-57 -4 -35 34 20 32 7 -4 -40 -21 -29 -43 -46 -61 -49 -33 -6 -100 -80 -110
-122 -6 -25 -3 -28 17 -28 20 0 23 4 20 24 -4 20 5 34 43 70 57 53 138 132
166 162 11 12 18 31 16 45 -2 16 -6 20 -11 12z"/>
<path d="M7375 2470 c-3 -5 3 -10 13 -10 11 0 35 -2 53 -5 l34 -5 -30 14 c-36
18 -61 20 -70 6z"/>
<path d="M9943 2447 c-4 -8 -17 -16 -28 -18 -13 -3 -22 -16 -27 -42 -4 -21
-24 -59 -43 -84 -19 -25 -32 -49 -29 -54 9 -16 21 -2 69 84 26 45 54 90 63
100 8 9 13 20 10 23 -4 3 -10 -1 -15 -9z"/>
<path d="M10948 2389 c-10 -5 -18 -20 -18 -32 0 -13 -6 -29 -12 -37 -7 -8 -2
-6 11 5 25 21 57 75 44 75 -5 0 -16 -5 -25 -11z"/>
<path d="M7645 2280 c19 -21 45 -27 45 -11 0 5 -14 14 -32 20 -31 11 -31 11
-13 -9z"/>
<path d="M10820 2260 c-30 -23 -65 -27 -57 -6 3 8 -14 1 -38 -16 -35 -25 -43
-36 -39 -53 4 -16 -5 -31 -35 -58 -23 -20 -47 -37 -54 -37 -7 0 -35 -18 -62
-41 -29 -24 -51 -36 -53 -29 -2 6 1 17 7 23 6 6 11 14 11 17 0 4 -26 -19 -58
-52 -67 -66 -101 -74 -160 -38 l-33 20 11 -21 c9 -15 8 -24 -1 -35 -9 -11 -8
-14 4 -14 9 0 20 -7 25 -16 7 -13 21 -8 95 30 48 26 93 46 100 46 15 0 49 25
168 125 46 39 100 82 119 97 64 49 95 77 85 77 -5 0 -21 -8 -35 -19z"/>
<path d="M10593 2225 c-18 -20 -45 -38 -62 -41 -39 -8 -51 -24 -17 -24 13 0
26 -4 28 -10 2 -5 30 4 63 20 33 16 52 29 41 30 -15 0 -17 5 -12 30 7 39 -3
38 -41 -5z"/>
<path d="M9762 2211 c-12 -7 -12 -12 -1 -30 8 -11 17 -21 20 -21 5 0 29 45 29
55 0 8 -34 5 -48 -4z"/>
<path d="M7730 2044 c0 -17 21 -27 44 -22 11 2 7 8 -14 20 -26 15 -30 15 -30
2z"/>
<path d="M10021 2044 c0 -11 3 -14 6 -6 3 7 2 16 -1 19 -3 4 -6 -2 -5 -13z"/>
<path d="M10050 1966 c0 -2 8 -10 18 -17 15 -13 16 -12 3 4 -13 16 -21 21 -21
13z"/>
<path d="M10124 1908 c15 -10 88 -10 104 1 8 4 -14 7 -51 7 -36 -1 -60 -4 -53
-8z"/>
<path d="M10215 1870 c-11 -5 -47 -9 -80 -9 -43 -1 -56 -4 -45 -11 29 -19 125
-5 155 21 12 11 -3 11 -30 -1z"/>
</g>
</svg>
